<svg width="97" height="117" viewBox="0 0 97 117" fill="none" xmlns="http://www.w3.org/2000/svg">
<path d="M38.9511 43.3097C39.1941 44.214 38.1722 44.9263 37.4078 44.3855L15.9947 29.2361C15.429 28.8359 15.432 27.9957 16.0004 27.5994L30.6078 17.4168C31.1763 17.0206 31.9657 17.3085 32.1454 17.9777L38.9511 43.3097Z" fill="#18BD3D"/>
<path d="M66.677 72.3056C69.513 80.1101 60.0501 86.5338 53.8435 81.0175L29.3024 59.2057C25.4052 55.7419 25.8099 49.5355 30.1238 46.6071L43.4514 37.5599C47.7654 34.6315 53.6829 36.5462 55.4636 41.4467L66.677 72.3056Z" fill="#FF3D00"/>
<path d="M30.7715 58.1839L53.7132 42.9631" stroke="#FF4D00" stroke-width="2" stroke-linecap="round" stroke-dasharray="15 15"/>
<path d="M37.187 64.0577L56.9997 50.7283" stroke="#FF4D00" stroke-width="2" stroke-linecap="round" stroke-dasharray="15 15"/>
<path d="M46.4053 72.4256L61.4186 62.6839" stroke="#FF4D00" stroke-width="2" stroke-linecap="round" stroke-dasharray="15 15"/>
<path d="M51.728 75.4834L62.1451 68.511" stroke="#FF4D00" stroke-width="2" stroke-linecap="round" stroke-dasharray="15 15"/>
<path d="M56.6445 80.178L64.8158 75.2548" stroke="#FF4D00" stroke-width="2" stroke-linecap="round" stroke-dasharray="15 15"/>
<path d="M50.9888 62.7031L59.8737 56.6538" stroke="#FF4D00" stroke-width="2" stroke-linecap="round" stroke-dasharray="15 15"/>
<path d="M41.5933 69.0601L47.9247 64.5493" stroke="#FF4D00" stroke-width="2" stroke-linecap="round" stroke-dasharray="15 15"/>
</svg>
