<svg width="124" height="124" viewBox="0 0 124 124" fill="none" xmlns="http://www.w3.org/2000/svg">
<path d="M91.1588 40.8406C90.6908 41.6516 89.4647 41.4323 89.3069 40.5093L84.8874 14.6541C84.7706 13.9711 85.3671 13.3792 86.0491 13.5012L103.577 16.6366C104.259 16.7586 104.614 17.5205 104.267 18.1207L91.1588 40.8406Z" fill="#18BD3D"/>
<path d="M90.2453 80.9484C86.7292 88.4711 75.4965 86.3179 75.0115 78.0283L73.0938 45.2512C72.7892 40.0461 77.4655 35.9453 82.5862 36.9269L98.4065 39.9595C103.527 40.9411 106.356 46.4804 104.148 51.2039L90.2453 80.9484Z" fill="#FF3D00"/>
<path d="M74.8555 45.5683L101.838 51.0378" stroke="#FF4D00" stroke-width="2" stroke-linecap="round" stroke-dasharray="15 15"/>
<path d="M75.2349 54.2582L98.6681 58.8512" stroke="#FF4D00" stroke-width="2" stroke-linecap="round" stroke-dasharray="15 15"/>
<path d="M75.8315 66.6937L93.3346 70.4278" stroke="#FF4D00" stroke-width="2" stroke-linecap="round" stroke-dasharray="15 15"/>
<path d="M77.4312 72.6204L89.7264 75.0607" stroke="#FF4D00" stroke-width="2" stroke-linecap="round" stroke-dasharray="15 15"/>
<path d="M77.5859 79.4166L86.8442 81.7168" stroke="#FF4D00" stroke-width="2" stroke-linecap="round" stroke-dasharray="15 15"/>
<path d="M85.9492 63.0636L96.5086 65.0726" stroke="#FF4D00" stroke-width="2" stroke-linecap="round" stroke-dasharray="15 15"/>
<path d="M74.811 60.9109L82.4772 62.2011" stroke="#FF4D00" stroke-width="2" stroke-linecap="round" stroke-dasharray="15 15"/>
<path d="M39.3102 50.3351C39.5707 51.2345 38.5629 51.9666 37.7882 51.4408L16.0839 36.7115C15.5106 36.3224 15.4971 35.4823 16.0577 35.075L30.464 24.6098C31.0246 24.2025 31.8195 24.475 32.0122 25.1406L39.3102 50.3351Z" fill="#18BD3D"/>
<path d="M67.5953 78.7854C70.5828 86.5331 61.2469 93.14 54.934 87.7456L29.9726 66.4161C26.0086 63.029 26.2922 56.8159 30.5483 53.8039L43.6971 44.4988C47.9532 41.4868 53.9068 43.2859 55.7827 48.1508L67.5953 78.7854Z" fill="#FF3D00"/>
<path d="M31.4219 65.3659L54.0627 49.701" stroke="#FF4D00" stroke-width="2" stroke-linecap="round" stroke-dasharray="15 15"/>
<path d="M37.9502 71.1136L57.4994 57.4007" stroke="#FF4D00" stroke-width="2" stroke-linecap="round" stroke-dasharray="15 15"/>
<path d="M47.3301 79.3003L62.1508 69.2679" stroke="#FF4D00" stroke-width="2" stroke-linecap="round" stroke-dasharray="15 15"/>
<path d="M52.7114 82.2538L62.9906 75.0797" stroke="#FF4D00" stroke-width="2" stroke-linecap="round" stroke-dasharray="15 15"/>
<path d="M57.7188 86.8517L65.7925 81.7702" stroke="#FF4D00" stroke-width="2" stroke-linecap="round" stroke-dasharray="15 15"/>
<path d="M51.7231 69.4903L60.4885 63.269" stroke="#FF4D00" stroke-width="2" stroke-linecap="round" stroke-dasharray="15 15"/>
<path d="M42.4531 76.0291L48.6955 71.3958" stroke="#FF4D00" stroke-width="2" stroke-linecap="round" stroke-dasharray="15 15"/>
</svg>
