<svg width="135" height="146" viewBox="0 0 135 146" fill="none" xmlns="http://www.w3.org/2000/svg">
<path d="M43.2465 87.5311C43.8674 88.232 43.2708 89.3254 42.3454 89.1826L16.4223 85.18C15.7375 85.0743 15.3652 84.321 15.6971 83.7127L24.2259 68.082C24.5578 67.4737 25.3928 67.3792 25.8523 67.8978L43.2465 87.5311Z" fill="#18BD3D"/>
<path d="M80.9973 101.109C87.0178 106.828 81.4157 116.799 73.3997 114.632L41.7045 106.062C36.6712 104.702 34.2639 98.9668 36.8178 94.4211L44.7079 80.3775C47.2619 75.8318 53.4119 74.9049 57.1923 78.4959L80.9973 101.109Z" fill="#FF3D00"/>
<path d="M42.5635 104.492L56.3028 80.6339" stroke="#FF4D00" stroke-width="2" stroke-linecap="round" stroke-dasharray="15 15"/>
<path d="M50.9258 106.886L62.7088 86.1168" stroke="#FF4D00" stroke-width="2" stroke-linecap="round" stroke-dasharray="15 15"/>
<path d="M62.9097 110.262L71.9985 94.8442" stroke="#FF4D00" stroke-width="2" stroke-linecap="round" stroke-dasharray="15 15"/>
<path d="M69.0376 110.623L75.2488 99.7348" stroke="#FF4D00" stroke-width="2" stroke-linecap="round" stroke-dasharray="15 15"/>
<path d="M75.5322 112.63L80.648 104.578" stroke="#FF4D00" stroke-width="2" stroke-linecap="round" stroke-dasharray="15 15"/>
<path d="M62.6729 99.5154L67.9249 90.1371" stroke="#FF4D00" stroke-width="2" stroke-linecap="round" stroke-dasharray="15 15"/>
<path d="M57.1011 109.397L60.7544 102.535" stroke="#FF4D00" stroke-width="2" stroke-linecap="round" stroke-dasharray="15 15"/>
<path d="M52.3102 43.3352C52.5707 44.2346 51.5629 44.9666 50.7882 44.4408L29.0839 29.7116C28.5106 29.3225 28.4971 28.4823 29.0577 28.0751L43.464 17.6098C44.0246 17.2025 44.8195 17.4751 45.0122 18.1406L52.3102 43.3352Z" fill="#18BD3D"/>
<path d="M80.5953 71.7854C83.5828 79.5332 74.2469 86.14 67.934 80.7456L42.9726 59.4162C39.0086 56.029 39.2922 49.8159 43.5483 46.804L56.6971 37.4988C60.9532 34.4869 66.9068 36.2859 68.7827 41.1508L80.5953 71.7854Z" fill="#FF3D00"/>
<path d="M44.4219 58.366L67.0627 42.701" stroke="#FF4D00" stroke-width="2" stroke-linecap="round" stroke-dasharray="15 15"/>
<path d="M50.9502 64.1137L70.4994 50.4008" stroke="#FF4D00" stroke-width="2" stroke-linecap="round" stroke-dasharray="15 15"/>
<path d="M60.3301 72.3003L75.1508 62.2679" stroke="#FF4D00" stroke-width="2" stroke-linecap="round" stroke-dasharray="15 15"/>
<path d="M65.7114 75.2538L75.9906 68.0798" stroke="#FF4D00" stroke-width="2" stroke-linecap="round" stroke-dasharray="15 15"/>
<path d="M70.7188 79.8517L78.7925 74.7703" stroke="#FF4D00" stroke-width="2" stroke-linecap="round" stroke-dasharray="15 15"/>
<path d="M64.7231 62.4903L73.4885 56.2691" stroke="#FF4D00" stroke-width="2" stroke-linecap="round" stroke-dasharray="15 15"/>
<path d="M55.4531 69.0292L61.6955 64.3959" stroke="#FF4D00" stroke-width="2" stroke-linecap="round" stroke-dasharray="15 15"/>
<path d="M104.869 55.8093C104.455 56.6495 103.217 56.5118 102.999 55.6013L96.8783 30.0951C96.7166 29.4213 97.2726 28.7913 97.9613 28.8679L115.658 30.8366C116.347 30.9133 116.751 31.6501 116.445 32.2719L104.869 55.8093Z" fill="#18BD3D"/>
<path d="M106.611 95.8897C103.6 103.628 92.2499 102.223 91.2175 93.9839L87.1353 61.4055C86.487 56.2319 90.8817 51.8308 96.0562 52.4714L112.042 54.4506C117.217 55.0913 120.406 60.4313 118.515 65.2905L106.611 95.8897Z" fill="#FF3D00"/>
<path d="M88.9141 61.6053L116.2 65.2776" stroke="#FF4D00" stroke-width="2" stroke-linecap="round" stroke-dasharray="15 15"/>
<path d="M89.8677 70.251L113.553 73.2836" stroke="#FF4D00" stroke-width="2" stroke-linecap="round" stroke-dasharray="15 15"/>
<path d="M91.2861 82.6198L108.998 85.1877" stroke="#FF4D00" stroke-width="2" stroke-linecap="round" stroke-dasharray="15 15"/>
<path d="M93.2739 88.4277L105.704 90.0492" stroke="#FF4D00" stroke-width="2" stroke-linecap="round" stroke-dasharray="15 15"/>
<path d="M93.8779 95.1988L103.268 96.8814" stroke="#FF4D00" stroke-width="2" stroke-linecap="round" stroke-dasharray="15 15"/>
<path d="M101.141 78.3283L111.81 79.6342" stroke="#FF4D00" stroke-width="2" stroke-linecap="round" stroke-dasharray="15 15"/>
<path d="M89.8848 76.9172L97.6195 77.6974" stroke="#FF4D00" stroke-width="2" stroke-linecap="round" stroke-dasharray="15 15"/>
</svg>
