<svg width="171" height="141" viewBox="0 0 171 141" fill="none" xmlns="http://www.w3.org/2000/svg">
<path d="M46.9511 46.3097C47.1941 47.214 46.1722 47.9263 45.4078 47.3855L23.9947 32.2361C23.429 31.8359 23.432 30.9957 24.0004 30.5994L38.6078 20.4168C39.1763 20.0206 39.9657 20.3085 40.1454 20.9777L46.9511 46.3097Z" fill="#18BD3D"/>
<path d="M74.677 75.3056C77.513 83.1101 68.0501 89.5338 61.8435 84.0175L37.3024 62.2057C33.4052 58.7419 33.8099 52.5355 38.1238 49.6071L51.4514 40.5599C55.7654 37.6315 61.6829 39.5462 63.4636 44.4467L74.677 75.3056Z" fill="#FF3D00"/>
<path d="M38.7715 61.1839L61.7132 45.9631" stroke="#FF4D00" stroke-width="2" stroke-linecap="round" stroke-dasharray="15 15"/>
<path d="M45.187 67.0577L64.9997 53.7283" stroke="#FF4D00" stroke-width="2" stroke-linecap="round" stroke-dasharray="15 15"/>
<path d="M54.4053 75.4256L69.4186 65.6839" stroke="#FF4D00" stroke-width="2" stroke-linecap="round" stroke-dasharray="15 15"/>
<path d="M59.728 78.4834L70.1451 71.511" stroke="#FF4D00" stroke-width="2" stroke-linecap="round" stroke-dasharray="15 15"/>
<path d="M64.6445 83.178L72.8158 78.2548" stroke="#FF4D00" stroke-width="2" stroke-linecap="round" stroke-dasharray="15 15"/>
<path d="M58.9888 65.7031L67.8737 59.6538" stroke="#FF4D00" stroke-width="2" stroke-linecap="round" stroke-dasharray="15 15"/>
<path d="M49.5933 72.0601L55.9247 67.5493" stroke="#FF4D00" stroke-width="2" stroke-linecap="round" stroke-dasharray="15 15"/>
<path d="M93.7606 39.5211C93.3614 40.3682 92.1213 40.2511 91.8876 39.3444L85.3417 13.9441C85.1688 13.2731 85.7141 12.6339 86.404 12.699L104.131 14.3717C104.821 14.4368 105.238 15.1667 104.942 15.7936L93.7606 39.5211Z" fill="#18BD3D"/>
<path d="M96.1727 79.5668C93.2919 87.3549 81.9194 86.1395 80.7494 77.9185L76.1234 45.4129C75.3887 40.2509 79.7092 35.777 84.8937 36.331L100.911 38.0428C106.095 38.5969 109.373 43.8828 107.564 48.773L96.1727 79.5668Z" fill="#FF3D00"/>
<path d="M77.9048 45.583L105.248 48.7987" stroke="#FF4D00" stroke-width="2" stroke-linecap="round" stroke-dasharray="15 15"/>
<path d="M79.0029 54.2116L102.736 56.8479" stroke="#FF4D00" stroke-width="2" stroke-linecap="round" stroke-dasharray="15 15"/>
<path d="M80.6279 66.555L98.3802 68.8265" stroke="#FF4D00" stroke-width="2" stroke-linecap="round" stroke-dasharray="15 15"/>
<path d="M82.7129 72.3288L95.1681 73.7423" stroke="#FF4D00" stroke-width="2" stroke-linecap="round" stroke-dasharray="15 15"/>
<path d="M83.4297 79.0889L92.8467 80.6142" stroke="#FF4D00" stroke-width="2" stroke-linecap="round" stroke-dasharray="15 15"/>
<path d="M90.4097 62.0993L101.099 63.2268" stroke="#FF4D00" stroke-width="2" stroke-linecap="round" stroke-dasharray="15 15"/>
<path d="M79.1318 60.8766L86.8785 61.5274" stroke="#FF4D00" stroke-width="2" stroke-linecap="round" stroke-dasharray="15 15"/>
<path d="M129.618 70.0906C128.86 70.6394 127.83 69.9378 128.064 69.031L134.605 43.6294C134.778 42.9583 135.564 42.6621 136.136 43.0524L150.849 53.0819C151.422 53.4722 151.434 54.3124 150.872 54.7185L129.618 70.0906Z" fill="#18BD3D"/>
<path d="M112.383 106.318C106.098 111.744 96.7277 105.186 99.6752 97.4228L111.33 66.7277C113.181 61.8533 119.125 60.0235 123.396 63.0135L136.593 72.2508C140.865 75.2408 141.18 81.4523 137.234 84.8599L112.383 106.318Z" fill="#FF3D00"/>
<path d="M112.807 67.7374L135.194 83.7637" stroke="#FF4D00" stroke-width="2" stroke-linecap="round" stroke-dasharray="15 15"/>
<path d="M109.6 75.8227L129.105 89.5974" stroke="#FF4D00" stroke-width="2" stroke-linecap="round" stroke-dasharray="15 15"/>
<path d="M105.059 87.4148L119.504 97.9805" stroke="#FF4D00" stroke-width="2" stroke-linecap="round" stroke-dasharray="15 15"/>
<path d="M104.095 93.4774L114.317 100.733" stroke="#FF4D00" stroke-width="2" stroke-linecap="round" stroke-dasharray="15 15"/>
<path d="M101.456 99.7424L108.964 105.628" stroke="#FF4D00" stroke-width="2" stroke-linecap="round" stroke-dasharray="15 15"/>
<path d="M115.776 88.2397L124.59 94.3914" stroke="#FF4D00" stroke-width="2" stroke-linecap="round" stroke-dasharray="15 15"/>
<path d="M106.492 81.7203L112.96 86.0328" stroke="#FF4D00" stroke-width="2" stroke-linecap="round" stroke-dasharray="15 15"/>
<path d="M40.4751 98.1213C41.2975 98.569 41.1086 99.8002 40.1898 99.9808L14.452 105.04C13.7721 105.173 13.1657 104.592 13.2707 103.907L15.9708 86.3064C16.0759 85.6215 16.8288 85.2485 17.4374 85.5798L40.4751 98.1213Z" fill="#18BD3D"/>
<path d="M80.5935 98.0404C88.201 101.369 86.3268 112.652 78.0517 113.342L45.3322 116.071C40.1363 116.505 35.9209 111.931 36.7753 106.788L39.415 90.8973C40.2694 85.7538 45.7369 82.7891 50.5137 84.8791L80.5935 98.0404Z" fill="#FF3D00"/>
<path d="M45.6055 114.302L50.4047 87.1923" stroke="#FF4D00" stroke-width="2" stroke-linecap="round" stroke-dasharray="15 15"/>
<path d="M54.2832 113.708L58.2942 90.1677" stroke="#FF4D00" stroke-width="2" stroke-linecap="round" stroke-dasharray="15 15"/>
<path d="M66.7002 112.803L69.9995 95.2126" stroke="#FF4D00" stroke-width="2" stroke-linecap="round" stroke-dasharray="15 15"/>
<path d="M72.5854 111.057L74.7203 98.705" stroke="#FF4D00" stroke-width="2" stroke-linecap="round" stroke-dasharray="15 15"/>
<path d="M79.376 110.734L81.446 101.422" stroke="#FF4D00" stroke-width="2" stroke-linecap="round" stroke-dasharray="15 15"/>
<path d="M62.8208 102.779L64.5675 92.1728" stroke="#FF4D00" stroke-width="2" stroke-linecap="round" stroke-dasharray="15 15"/>
<path d="M60.9443 113.967L62.0442 106.271" stroke="#FF4D00" stroke-width="2" stroke-linecap="round" stroke-dasharray="15 15"/>
</svg>
