<svg width="181" height="150" viewBox="0 0 181 150" fill="none" xmlns="http://www.w3.org/2000/svg">
<path d="M52.4155 36.7547C52.1356 37.6483 50.8911 37.7016 50.536 36.8352L40.5859 12.5654C40.323 11.9243 40.7761 11.2166 41.4684 11.187L59.2583 10.4256C59.9506 10.3959 60.4625 11.0623 60.2554 11.7235L52.4155 36.7547Z" fill="#18BD3D"/>
<path d="M60.2682 76.0969C58.4768 84.2052 47.0448 84.5527 44.7642 76.5682L35.7467 44.9977C34.3147 39.9842 37.9844 34.9626 43.196 34.8042L59.2968 34.3148C64.5084 34.1563 68.4764 38.9457 67.3515 44.037L60.2682 76.0969Z" fill="#FF3D00"/>
<path d="M37.5352 44.9231L65.0615 44.3784" stroke="#FF4D00" stroke-width="2" stroke-linecap="round" stroke-dasharray="15 15"/>
<path d="M39.8003 53.3212L63.6712 52.695" stroke="#FF4D00" stroke-width="2" stroke-linecap="round" stroke-dasharray="15 15"/>
<path d="M43.0938 65.3275L60.9899 65.1559" stroke="#FF4D00" stroke-width="2" stroke-linecap="round" stroke-dasharray="15 15"/>
<path d="M45.9468 70.7629L58.4783 70.4639" stroke="#FF4D00" stroke-width="2" stroke-linecap="round" stroke-dasharray="15 15"/>
<path d="M47.5791 77.362L57.1162 77.5884" stroke="#FF4D00" stroke-width="2" stroke-linecap="round" stroke-dasharray="15 15"/>
<path d="M52.1763 59.579L62.9196 59.2376" stroke="#FF4D00" stroke-width="2" stroke-linecap="round" stroke-dasharray="15 15"/>
<path d="M40.8369 59.9063L48.5999 59.4942" stroke="#FF4D00" stroke-width="2" stroke-linecap="round" stroke-dasharray="15 15"/>
<path d="M89.3476 55.7596C89.0678 56.6531 87.8233 56.7064 87.4681 55.84L77.518 31.5702C77.2552 30.9291 77.7082 30.2215 78.4005 30.1918L96.1905 29.4304C96.8828 29.4007 97.3946 30.0671 97.1875 30.7283L89.3476 55.7596Z" fill="#18BD3D"/>
<path d="M97.2003 95.1018C95.4089 103.21 83.977 103.558 81.6964 95.5731L72.6788 64.0025C71.2468 58.989 74.9165 53.9674 80.1281 53.809L96.229 53.3196C101.441 53.1612 105.409 57.9506 104.284 63.0418L97.2003 95.1018Z" fill="#FF3D00"/>
<path d="M74.4673 63.9279L101.994 63.3832" stroke="#FF4D00" stroke-width="2" stroke-linecap="round" stroke-dasharray="15 15"/>
<path d="M76.7324 72.326L100.603 71.6998" stroke="#FF4D00" stroke-width="2" stroke-linecap="round" stroke-dasharray="15 15"/>
<path d="M80.0259 84.3323L97.922 84.1607" stroke="#FF4D00" stroke-width="2" stroke-linecap="round" stroke-dasharray="15 15"/>
<path d="M82.8789 89.7677L95.4104 89.4687" stroke="#FF4D00" stroke-width="2" stroke-linecap="round" stroke-dasharray="15 15"/>
<path d="M84.5112 96.3668L94.0483 96.5932" stroke="#FF4D00" stroke-width="2" stroke-linecap="round" stroke-dasharray="15 15"/>
<path d="M89.1084 78.5838L99.8517 78.2424" stroke="#FF4D00" stroke-width="2" stroke-linecap="round" stroke-dasharray="15 15"/>
<path d="M77.769 78.9111L85.5321 78.499" stroke="#FF4D00" stroke-width="2" stroke-linecap="round" stroke-dasharray="15 15"/>
<path d="M127.348 37.7596C127.068 38.6531 125.823 38.7064 125.468 37.84L115.518 13.5702C115.255 12.9291 115.708 12.2215 116.401 12.1918L134.19 11.4304C134.883 11.4007 135.395 12.0671 135.188 12.7283L127.348 37.7596Z" fill="#18BD3D"/>
<path d="M135.2 77.1018C133.409 85.21 121.977 85.5575 119.696 77.5731L110.679 46.0025C109.247 40.989 112.917 35.9674 118.128 35.809L134.229 35.3196C139.441 35.1612 143.409 39.9506 142.284 45.0418L135.2 77.1018Z" fill="#FF3D00"/>
<path d="M112.467 45.9279L139.994 45.3832" stroke="#FF4D00" stroke-width="2" stroke-linecap="round" stroke-dasharray="15 15"/>
<path d="M114.732 54.326L138.603 53.6998" stroke="#FF4D00" stroke-width="2" stroke-linecap="round" stroke-dasharray="15 15"/>
<path d="M118.026 66.3323L135.922 66.1607" stroke="#FF4D00" stroke-width="2" stroke-linecap="round" stroke-dasharray="15 15"/>
<path d="M120.879 71.7677L133.41 71.4687" stroke="#FF4D00" stroke-width="2" stroke-linecap="round" stroke-dasharray="15 15"/>
<path d="M122.511 78.3668L132.048 78.5932" stroke="#FF4D00" stroke-width="2" stroke-linecap="round" stroke-dasharray="15 15"/>
<path d="M127.108 60.5838L137.852 60.2424" stroke="#FF4D00" stroke-width="2" stroke-linecap="round" stroke-dasharray="15 15"/>
<path d="M115.769 60.9111L123.532 60.499" stroke="#FF4D00" stroke-width="2" stroke-linecap="round" stroke-dasharray="15 15"/>
<path d="M42.3716 99.4915C43.1132 100.063 42.7327 101.249 41.7969 101.283L15.5835 102.222C14.891 102.247 14.3838 101.577 14.5955 100.918L20.0354 83.9627C20.2471 83.3029 21.0494 83.0532 21.5982 83.4762L42.3716 99.4915Z" fill="#18BD3D"/>
<path d="M82.0014 105.734C88.9892 110.22 85.3605 121.066 77.08 120.443L44.3392 117.982C39.1399 117.592 35.6979 112.411 37.3522 107.467L42.463 92.1907C44.1173 87.2461 49.9837 85.18 54.3714 87.9967L82.0014 105.734Z" fill="#FF3D00"/>
<path d="M44.8877 116.279L53.8992 90.2638" stroke="#FF4D00" stroke-width="2" stroke-linecap="round" stroke-dasharray="15 15"/>
<path d="M53.5508 117.059L61.2213 94.4454" stroke="#FF4D00" stroke-width="2" stroke-linecap="round" stroke-dasharray="15 15"/>
<path d="M65.9551 118.122L71.9851 101.272" stroke="#FF4D00" stroke-width="2" stroke-linecap="round" stroke-dasharray="15 15"/>
<path d="M72.042 117.326L76.0967 105.465" stroke="#FF4D00" stroke-width="2" stroke-linecap="round" stroke-dasharray="15 15"/>
<path d="M78.7983 118.077L82.31 109.207" stroke="#FF4D00" stroke-width="2" stroke-linecap="round" stroke-dasharray="15 15"/>
<path d="M63.7036 107.612L67.0999 97.414" stroke="#FF4D00" stroke-width="2" stroke-linecap="round" stroke-dasharray="15 15"/>
<path d="M60.0879 118.365L62.3868 110.938" stroke="#FF4D00" stroke-width="2" stroke-linecap="round" stroke-dasharray="15 15"/>
<path d="M138.048 101.136C137.115 101.22 136.589 100.091 137.254 99.4308L155.865 80.9468C156.356 80.4585 157.183 80.6061 157.476 81.2343L164.99 97.3772C165.283 98.0054 164.863 98.7334 164.173 98.7952L138.048 101.136Z" fill="#18BD3D"/>
<path d="M104.71 123.454C96.5335 124.903 91.8355 114.476 98.3384 109.312L124.051 88.8939C128.134 85.6515 134.178 87.119 136.32 91.8728L142.936 106.559C145.078 111.313 142.173 116.813 137.039 117.723L104.71 123.454Z" fill="#FF3D00"/>
<path d="M124.805 90.5172L135.847 115.738" stroke="#FF4D00" stroke-width="2" stroke-linecap="round" stroke-dasharray="15 15"/>
<path d="M117.914 95.825L127.632 117.637" stroke="#FF4D00" stroke-width="2" stroke-linecap="round" stroke-dasharray="15 15"/>
<path d="M108.083 103.464L115.093 119.931" stroke="#FF4D00" stroke-width="2" stroke-linecap="round" stroke-dasharray="15 15"/>
<path d="M104.154 108.181L109.228 119.643" stroke="#FF4D00" stroke-width="2" stroke-linecap="round" stroke-dasharray="15 15"/>
<path d="M98.6831 112.216L102.125 121.113" stroke="#FF4D00" stroke-width="2" stroke-linecap="round" stroke-dasharray="15 15"/>
<path d="M116.871 109.654L121.3 119.448" stroke="#FF4D00" stroke-width="2" stroke-linecap="round" stroke-dasharray="15 15"/>
<path d="M112.227 99.3039L115.58 106.318" stroke="#FF4D00" stroke-width="2" stroke-linecap="round" stroke-dasharray="15 15"/>
</svg>
