<svg width="147" height="151" viewBox="0 0 147 151" fill="none" xmlns="http://www.w3.org/2000/svg">
<path d="M69.6186 91.534C69.5287 92.277 68.5584 92.4999 68.1532 91.8707L56.8025 74.2451C56.5026 73.7795 56.7557 73.1574 57.2955 73.0334L71.1656 69.8467C71.7053 69.7227 72.2045 70.1719 72.138 70.7217L69.6186 91.534Z" fill="#18BD3D"/>
<path d="M81.5144 121.31C81.2862 127.943 72.3526 129.879 69.3986 123.936L57.7185 100.437C55.8637 96.7055 58.017 92.2252 62.0897 91.3424L74.6719 88.6152C78.7446 87.7325 82.5598 90.9191 82.4165 95.0839L81.5144 121.31Z" fill="#FF3D00"/>
<path d="M59.1128 100.118L80.6661 95.6855" stroke="#FF4D00" stroke-width="1.59848" stroke-linecap="round" stroke-dasharray="11.99 11.99"/>
<path d="M62.1147 106.389L80.7835 102.424" stroke="#FF4D00" stroke-width="1.59848" stroke-linecap="round" stroke-dasharray="11.99 11.99"/>
<path d="M66.4502 115.345L80.4895 112.607" stroke="#FF4D00" stroke-width="1.59848" stroke-linecap="round" stroke-dasharray="11.99 11.99"/>
<path d="M69.4834 119.202L79.2883 117.143" stroke="#FF4D00" stroke-width="1.59848" stroke-linecap="round" stroke-dasharray="11.99 11.99"/>
<path d="M71.7266 124.15L79.2545 122.941" stroke="#FF4D00" stroke-width="1.59848" stroke-linecap="round" stroke-dasharray="11.99 11.99"/>
<path d="M72.7515 109.506L81.1448 107.675" stroke="#FF4D00" stroke-width="1.59848" stroke-linecap="round" stroke-dasharray="11.99 11.99"/>
<path d="M63.8877 111.413L69.9286 109.96" stroke="#FF4D00" stroke-width="1.59848" stroke-linecap="round" stroke-dasharray="11.99 11.99"/>
<path d="M41.892 36.5652C41.6683 37.2794 40.6737 37.3219 40.3898 36.6295L32.4373 17.2321C32.2272 16.7197 32.5893 16.1541 33.1426 16.1304L47.3611 15.5218C47.9144 15.4982 48.3235 16.0307 48.1579 16.5592L41.892 36.5652Z" fill="#18BD3D"/>
<path d="M48.1682 68.009C46.7364 74.4895 37.5996 74.7672 35.7768 68.3857L28.5697 43.1532C27.4251 39.1462 30.3581 35.1328 34.5234 35.0062L47.3919 34.615C51.5572 34.4884 54.7285 38.3163 53.8295 42.3854L48.1682 68.009Z" fill="#FF3D00"/>
<path d="M29.999 43.0936L51.9992 42.6583" stroke="#FF4D00" stroke-width="1.59848" stroke-linecap="round" stroke-dasharray="11.99 11.99"/>
<path d="M31.8091 49.8058L50.8877 49.3053" stroke="#FF4D00" stroke-width="1.59848" stroke-linecap="round" stroke-dasharray="11.99 11.99"/>
<path d="M34.4414 59.4017L48.7447 59.2645" stroke="#FF4D00" stroke-width="1.59848" stroke-linecap="round" stroke-dasharray="11.99 11.99"/>
<path d="M36.7217 63.7458L46.7374 63.5069" stroke="#FF4D00" stroke-width="1.59848" stroke-linecap="round" stroke-dasharray="11.99 11.99"/>
<path d="M38.0264 69.0201L45.6488 69.2011" stroke="#FF4D00" stroke-width="1.59848" stroke-linecap="round" stroke-dasharray="11.99 11.99"/>
<path d="M41.7007 54.8073L50.2872 54.5344" stroke="#FF4D00" stroke-width="1.59848" stroke-linecap="round" stroke-dasharray="11.99 11.99"/>
<path d="M32.6377 55.0688L38.8422 54.7394" stroke="#FF4D00" stroke-width="1.59848" stroke-linecap="round" stroke-dasharray="11.99 11.99"/>
<path d="M69.8119 29.3759C69.5882 30.09 68.5936 30.1326 68.3097 29.4402L60.3572 10.0428C60.1471 9.53036 60.5092 8.96477 61.0625 8.94109L75.281 8.33251C75.8343 8.30882 76.2434 8.8414 76.0779 9.3699L69.8119 29.3759Z" fill="#18BD3D"/>
<path d="M76.0881 60.8198C74.6564 67.3002 65.5195 67.578 63.6967 61.1964L56.4896 35.964C55.3451 31.957 58.278 27.9435 62.4434 27.8169L75.3118 27.4257C79.4771 27.2991 82.6484 31.127 81.7494 35.1961L76.0881 60.8198Z" fill="#FF3D00"/>
<path d="M57.9189 35.9044L79.9191 35.469" stroke="#FF4D00" stroke-width="1.59848" stroke-linecap="round" stroke-dasharray="11.99 11.99"/>
<path d="M59.729 42.6165L78.8076 42.1159" stroke="#FF4D00" stroke-width="1.59848" stroke-linecap="round" stroke-dasharray="11.99 11.99"/>
<path d="M62.3613 52.2124L76.6646 52.0752" stroke="#FF4D00" stroke-width="1.59848" stroke-linecap="round" stroke-dasharray="11.99 11.99"/>
<path d="M64.6416 56.5565L74.6573 56.3176" stroke="#FF4D00" stroke-width="1.59848" stroke-linecap="round" stroke-dasharray="11.99 11.99"/>
<path d="M65.9463 61.8308L73.5687 62.0117" stroke="#FF4D00" stroke-width="1.59848" stroke-linecap="round" stroke-dasharray="11.99 11.99"/>
<path d="M69.6206 47.6179L78.2071 47.345" stroke="#FF4D00" stroke-width="1.59848" stroke-linecap="round" stroke-dasharray="11.99 11.99"/>
<path d="M60.5576 47.8795L66.7621 47.5501" stroke="#FF4D00" stroke-width="1.59848" stroke-linecap="round" stroke-dasharray="11.99 11.99"/>
<path d="M101.781 37.3683C101.557 38.0825 100.562 38.125 100.278 37.4326L92.326 18.0352C92.1159 17.5228 92.478 16.9572 93.0313 16.9335L107.25 16.3249C107.803 16.3013 108.212 16.8338 108.047 17.3623L101.781 37.3683Z" fill="#18BD3D"/>
<path d="M108.057 68.8121C106.625 75.2926 97.4882 75.5703 95.6655 69.1888L88.4583 43.9563C87.3138 39.9493 90.2468 35.9359 94.4121 35.8093L107.281 35.4181C111.446 35.2915 114.617 39.1194 113.718 43.1885L108.057 68.8121Z" fill="#FF3D00"/>
<path d="M89.8877 43.8968L111.888 43.4614" stroke="#FF4D00" stroke-width="1.59848" stroke-linecap="round" stroke-dasharray="11.99 11.99"/>
<path d="M91.6978 50.6089L110.776 50.1084" stroke="#FF4D00" stroke-width="1.59848" stroke-linecap="round" stroke-dasharray="11.99 11.99"/>
<path d="M94.3301 60.2048L108.633 60.0676" stroke="#FF4D00" stroke-width="1.59848" stroke-linecap="round" stroke-dasharray="11.99 11.99"/>
<path d="M96.6104 64.549L106.626 64.31" stroke="#FF4D00" stroke-width="1.59848" stroke-linecap="round" stroke-dasharray="11.99 11.99"/>
<path d="M97.915 69.8232L105.537 70.0042" stroke="#FF4D00" stroke-width="1.59848" stroke-linecap="round" stroke-dasharray="11.99 11.99"/>
<path d="M101.589 55.6104L110.176 55.3375" stroke="#FF4D00" stroke-width="1.59848" stroke-linecap="round" stroke-dasharray="11.99 11.99"/>
<path d="M92.5264 55.8719L98.7309 55.5425" stroke="#FF4D00" stroke-width="1.59848" stroke-linecap="round" stroke-dasharray="11.99 11.99"/>
<path d="M31.9741 88.1847C32.2111 88.8946 31.4299 89.5117 30.7942 89.1168L12.9866 78.0539C12.5162 77.7616 12.4783 77.0911 12.9129 76.7478L24.0802 67.9259C24.5148 67.5826 25.1583 67.7746 25.3337 68.2999L31.9741 88.1847Z" fill="#18BD3D"/>
<path d="M55.4797 109.993C58.1153 116.084 50.8727 121.661 45.6574 117.557L25.0358 101.328C21.761 98.7507 21.7872 93.7798 25.0889 91.2373L35.2894 83.3824C38.5912 80.8399 43.4037 82.0846 45.0586 85.9092L55.4797 109.993Z" fill="#FF3D00"/>
<path d="M26.1592 100.442L43.7349 87.2026" stroke="#FF4D00" stroke-width="1.59848" stroke-linecap="round" stroke-dasharray="11.99 11.99"/>
<path d="M31.5581 104.822L46.7278 93.2408" stroke="#FF4D00" stroke-width="1.59848" stroke-linecap="round" stroke-dasharray="11.99 11.99"/>
<path d="M39.3125 111.057L50.8247 102.568" stroke="#FF4D00" stroke-width="1.59848" stroke-linecap="round" stroke-dasharray="11.99 11.99"/>
<path d="M43.7056 113.242L51.6831 107.182" stroke="#FF4D00" stroke-width="1.59848" stroke-linecap="round" stroke-dasharray="11.99 11.99"/>
<path d="M47.8521 116.753L54.1358 112.435" stroke="#FF4D00" stroke-width="1.59848" stroke-linecap="round" stroke-dasharray="11.99 11.99"/>
<path d="M42.5044 103.082L49.3038 97.8308" stroke="#FF4D00" stroke-width="1.59848" stroke-linecap="round" stroke-dasharray="11.99 11.99"/>
<path d="M35.3125 108.602L40.1482 104.701" stroke="#FF4D00" stroke-width="1.59848" stroke-linecap="round" stroke-dasharray="11.99 11.99"/>
<path d="M114.519 88.065C113.927 88.5223 113.087 87.9876 113.251 87.2574L117.84 66.8015C117.961 66.2612 118.582 66.0049 119.049 66.3023L131.054 73.9458C131.521 74.2433 131.551 74.9141 131.113 75.2526L114.519 88.065Z" fill="#18BD3D"/>
<path d="M101.657 117.437C96.7725 121.929 89.1231 116.925 91.2833 110.649L99.8248 85.8366C101.181 81.8963 105.884 80.2857 109.371 82.5673L120.145 89.6159C123.632 91.8975 124.039 96.8516 120.972 99.6726L101.657 117.437Z" fill="#FF3D00"/>
<path d="M101.031 86.6061L119.316 98.848" stroke="#FF4D00" stroke-width="1.59848" stroke-linecap="round" stroke-dasharray="11.99 11.99"/>
<path d="M98.6709 93.1454L114.598 103.661" stroke="#FF4D00" stroke-width="1.59848" stroke-linecap="round" stroke-dasharray="11.99 11.99"/>
<path d="M95.3335 102.519L107.138 110.598" stroke="#FF4D00" stroke-width="1.59848" stroke-linecap="round" stroke-dasharray="11.99 11.99"/>
<path d="M94.7153 107.387L103.063 112.926" stroke="#FF4D00" stroke-width="1.59848" stroke-linecap="round" stroke-dasharray="11.99 11.99"/>
<path d="M92.7646 112.458L98.9098 116.971" stroke="#FF4D00" stroke-width="1.59848" stroke-linecap="round" stroke-dasharray="11.99 11.99"/>
<path d="M103.916 102.91L111.111 107.603" stroke="#FF4D00" stroke-width="1.59848" stroke-linecap="round" stroke-dasharray="11.99 11.99"/>
<path d="M96.3364 97.9345L101.611 101.218" stroke="#FF4D00" stroke-width="1.59848" stroke-linecap="round" stroke-dasharray="11.99 11.99"/>
</svg>
