<svg width="133" height="141" viewBox="0 0 133 141" fill="none" xmlns="http://www.w3.org/2000/svg">
<path d="M20.7491 29.9451C20.5963 30.6704 19.6197 30.8068 19.2742 30.151L9.59392 11.7814C9.3382 11.2961 9.64155 10.7042 10.1848 10.6283L24.1451 8.67969C24.6883 8.60386 25.1422 9.09013 25.0291 9.62687L20.7491 29.9451Z" fill="#18BD3D"/>
<path d="M29.9195 60.3504C29.1226 66.8753 20.1409 68.0157 17.7385 61.8971L8.23962 37.7039C6.73116 33.862 9.24212 29.6269 13.3367 29.107L25.9866 27.5008C30.0812 26.9808 33.5709 30.454 33.0705 34.551L29.9195 60.3504Z" fill="#FF3D00"/>
<path d="M9.64307 37.5096L31.2918 34.9937" stroke="#FF4D00" stroke-width="1.58322" stroke-linecap="round" stroke-dasharray="11.87 11.87"/>
<path d="M12.0645 43.9554L30.8266 41.6523" stroke="#FF4D00" stroke-width="1.58322" stroke-linecap="round" stroke-dasharray="11.87 11.87"/>
<path d="M15.5698 53.1664L29.6585 51.6744" stroke="#FF4D00" stroke-width="1.58322" stroke-linecap="round" stroke-dasharray="11.87 11.87"/>
<path d="M18.2305 57.233L28.0823 56.0474" stroke="#FF4D00" stroke-width="1.58322" stroke-linecap="round" stroke-dasharray="11.87 11.87"/>
<path d="M20.0166 62.3091L27.5487 61.7645" stroke="#FF4D00" stroke-width="1.58322" stroke-linecap="round" stroke-dasharray="11.87 11.87"/>
<path d="M22.2905 47.9481L30.7301 46.8646" stroke="#FF4D00" stroke-width="1.58322" stroke-linecap="round" stroke-dasharray="11.87 11.87"/>
<path d="M13.3804 49.0657L19.4662 48.1524" stroke="#FF4D00" stroke-width="1.58322" stroke-linecap="round" stroke-dasharray="11.87 11.87"/>
<path d="M48.8341 29.9451C48.6813 30.6704 47.7047 30.8068 47.3591 30.151L37.6789 11.7814C37.4232 11.2961 37.7265 10.7042 38.2698 10.6283L52.23 8.67969C52.7733 8.60386 53.2272 9.09013 53.1141 9.62687L48.8341 29.9451Z" fill="#18BD3D"/>
<path d="M58.0045 60.3505C57.2075 66.8753 48.2258 68.0158 45.8235 61.8971L36.3246 37.704C34.8161 33.862 37.3271 29.627 41.4217 29.1071L54.0716 27.5008C58.1662 26.9809 61.6559 30.454 61.1555 34.551L58.0045 60.3505Z" fill="#FF3D00"/>
<path d="M37.7285 37.5096L59.3772 34.9937" stroke="#FF4D00" stroke-width="1.58322" stroke-linecap="round" stroke-dasharray="11.87 11.87"/>
<path d="M40.1494 43.9554L58.9116 41.6523" stroke="#FF4D00" stroke-width="1.58322" stroke-linecap="round" stroke-dasharray="11.87 11.87"/>
<path d="M43.6548 53.1664L57.7434 51.6744" stroke="#FF4D00" stroke-width="1.58322" stroke-linecap="round" stroke-dasharray="11.87 11.87"/>
<path d="M46.3154 57.233L56.1673 56.0474" stroke="#FF4D00" stroke-width="1.58322" stroke-linecap="round" stroke-dasharray="11.87 11.87"/>
<path d="M48.1021 62.3091L55.6342 61.7645" stroke="#FF4D00" stroke-width="1.58322" stroke-linecap="round" stroke-dasharray="11.87 11.87"/>
<path d="M50.376 47.9481L58.8156 46.8646" stroke="#FF4D00" stroke-width="1.58322" stroke-linecap="round" stroke-dasharray="11.87 11.87"/>
<path d="M41.4658 49.0657L47.5516 48.1524" stroke="#FF4D00" stroke-width="1.58322" stroke-linecap="round" stroke-dasharray="11.87 11.87"/>
<path d="M81.2901 29.9451C81.1373 30.6704 80.1608 30.8068 79.8152 30.151L70.1349 11.7814C69.8792 11.2961 70.1826 10.7042 70.7258 10.6283L84.6861 8.67969C85.2294 8.60386 85.6832 9.09013 85.5702 9.62687L81.2901 29.9451Z" fill="#18BD3D"/>
<path d="M90.4605 60.3505C89.6636 66.8753 80.6819 68.0158 78.2795 61.8971L68.7806 37.704C67.2722 33.862 69.7831 29.627 73.8777 29.1071L86.5276 27.5008C90.6222 26.9809 94.1119 30.454 93.6115 34.551L90.4605 60.3505Z" fill="#FF3D00"/>
<path d="M70.1846 37.5096L91.8333 34.9937" stroke="#FF4D00" stroke-width="1.58322" stroke-linecap="round" stroke-dasharray="11.87 11.87"/>
<path d="M72.6055 43.9554L91.3677 41.6523" stroke="#FF4D00" stroke-width="1.58322" stroke-linecap="round" stroke-dasharray="11.87 11.87"/>
<path d="M76.1108 53.1664L90.1995 51.6744" stroke="#FF4D00" stroke-width="1.58322" stroke-linecap="round" stroke-dasharray="11.87 11.87"/>
<path d="M78.7715 57.233L88.6233 56.0474" stroke="#FF4D00" stroke-width="1.58322" stroke-linecap="round" stroke-dasharray="11.87 11.87"/>
<path d="M80.5581 62.3091L88.0902 61.7645" stroke="#FF4D00" stroke-width="1.58322" stroke-linecap="round" stroke-dasharray="11.87 11.87"/>
<path d="M82.832 47.9481L91.2716 46.8646" stroke="#FF4D00" stroke-width="1.58322" stroke-linecap="round" stroke-dasharray="11.87 11.87"/>
<path d="M73.9219 49.0657L80.0077 48.1524" stroke="#FF4D00" stroke-width="1.58322" stroke-linecap="round" stroke-dasharray="11.87 11.87"/>
<path d="M109.788 29.9451C109.635 30.6704 108.659 30.8068 108.313 30.151L98.633 11.7814C98.3773 11.2961 98.6806 10.7042 99.2239 10.6283L113.184 8.67969C113.727 8.60386 114.181 9.09013 114.068 9.62687L109.788 29.9451Z" fill="#18BD3D"/>
<path d="M118.959 60.3505C118.162 66.8753 109.18 68.0158 106.778 61.8971L97.2787 37.704C95.7702 33.862 98.2812 29.627 102.376 29.1071L115.026 27.5008C119.12 26.9809 122.61 30.454 122.11 34.551L118.959 60.3505Z" fill="#FF3D00"/>
<path d="M98.6826 37.5096L120.331 34.9937" stroke="#FF4D00" stroke-width="1.58322" stroke-linecap="round" stroke-dasharray="11.87 11.87"/>
<path d="M101.104 43.9554L119.866 41.6523" stroke="#FF4D00" stroke-width="1.58322" stroke-linecap="round" stroke-dasharray="11.87 11.87"/>
<path d="M104.609 53.1664L118.698 51.6744" stroke="#FF4D00" stroke-width="1.58322" stroke-linecap="round" stroke-dasharray="11.87 11.87"/>
<path d="M107.27 57.233L117.121 56.0474" stroke="#FF4D00" stroke-width="1.58322" stroke-linecap="round" stroke-dasharray="11.87 11.87"/>
<path d="M109.056 62.3091L116.588 61.7645" stroke="#FF4D00" stroke-width="1.58322" stroke-linecap="round" stroke-dasharray="11.87 11.87"/>
<path d="M111.33 47.9481L119.77 46.8646" stroke="#FF4D00" stroke-width="1.58322" stroke-linecap="round" stroke-dasharray="11.87 11.87"/>
<path d="M102.42 49.0657L108.506 48.1524" stroke="#FF4D00" stroke-width="1.58322" stroke-linecap="round" stroke-dasharray="11.87 11.87"/>
<path d="M42.5011 83.0062C42.3483 83.7315 41.3717 83.8678 41.0261 83.212L31.3459 64.8424C31.0902 64.3572 31.3935 63.7652 31.9368 63.6894L45.897 61.7407C46.4403 61.6649 46.8942 62.1512 46.7811 62.6879L42.5011 83.0062Z" fill="#18BD3D"/>
<path d="M51.6715 113.411C50.8745 119.936 41.8928 121.077 39.4905 114.958L29.9916 90.7649C28.4831 86.9229 30.9941 82.6879 35.0887 82.168L47.7386 80.5617C51.8332 80.0418 55.3229 83.5149 54.8225 87.612L51.6715 113.411Z" fill="#FF3D00"/>
<path d="M31.3955 90.5707L53.0442 88.0547" stroke="#FF4D00" stroke-width="1.58322" stroke-linecap="round" stroke-dasharray="11.87 11.87"/>
<path d="M33.8164 97.0164L52.5786 94.7133" stroke="#FF4D00" stroke-width="1.58322" stroke-linecap="round" stroke-dasharray="11.87 11.87"/>
<path d="M37.3218 106.227L51.4104 104.735" stroke="#FF4D00" stroke-width="1.58322" stroke-linecap="round" stroke-dasharray="11.87 11.87"/>
<path d="M39.9824 110.294L49.8343 109.108" stroke="#FF4D00" stroke-width="1.58322" stroke-linecap="round" stroke-dasharray="11.87 11.87"/>
<path d="M41.769 115.37L49.3011 114.826" stroke="#FF4D00" stroke-width="1.58322" stroke-linecap="round" stroke-dasharray="11.87 11.87"/>
<path d="M44.043 101.009L52.4825 99.9257" stroke="#FF4D00" stroke-width="1.58322" stroke-linecap="round" stroke-dasharray="11.87 11.87"/>
<path d="M35.1328 102.127L41.2186 101.213" stroke="#FF4D00" stroke-width="1.58322" stroke-linecap="round" stroke-dasharray="11.87 11.87"/>
<path d="M70.9991 83.0062C70.8463 83.7315 69.8697 83.8678 69.5242 83.212L59.8439 64.8424C59.5882 64.3572 59.8916 63.7652 60.4348 63.6894L74.3951 61.7407C74.9383 61.6649 75.3922 62.1512 75.2791 62.6879L70.9991 83.0062Z" fill="#18BD3D"/>
<path d="M80.1695 113.411C79.3726 119.936 70.3909 121.077 67.9885 114.958L58.4896 90.7649C56.9812 86.9229 59.4921 82.6879 63.5867 82.168L76.2366 80.5617C80.3312 80.0418 83.8209 83.5149 83.3205 87.612L80.1695 113.411Z" fill="#FF3D00"/>
<path d="M59.8936 90.5707L81.5423 88.0547" stroke="#FF4D00" stroke-width="1.58322" stroke-linecap="round" stroke-dasharray="11.87 11.87"/>
<path d="M62.3145 97.0164L81.0766 94.7133" stroke="#FF4D00" stroke-width="1.58322" stroke-linecap="round" stroke-dasharray="11.87 11.87"/>
<path d="M65.8198 106.227L79.9085 104.735" stroke="#FF4D00" stroke-width="1.58322" stroke-linecap="round" stroke-dasharray="11.87 11.87"/>
<path d="M68.4805 110.294L78.3323 109.108" stroke="#FF4D00" stroke-width="1.58322" stroke-linecap="round" stroke-dasharray="11.87 11.87"/>
<path d="M70.2671 115.37L77.7992 114.826" stroke="#FF4D00" stroke-width="1.58322" stroke-linecap="round" stroke-dasharray="11.87 11.87"/>
<path d="M72.541 101.009L80.9806 99.9257" stroke="#FF4D00" stroke-width="1.58322" stroke-linecap="round" stroke-dasharray="11.87 11.87"/>
<path d="M63.6309 102.127L69.7167 101.213" stroke="#FF4D00" stroke-width="1.58322" stroke-linecap="round" stroke-dasharray="11.87 11.87"/>
<path d="M102.664 83.0062C102.511 83.7315 101.534 83.8678 101.189 83.212L91.5085 64.8424C91.2528 64.3572 91.5561 63.7652 92.0994 63.6894L106.06 61.7407C106.603 61.6649 107.057 62.1512 106.944 62.6879L102.664 83.0062Z" fill="#18BD3D"/>
<path d="M111.834 113.411C111.037 119.936 102.055 121.077 99.6531 114.958L90.1542 90.7649C88.6457 86.9229 91.1567 82.6879 95.2513 82.168L107.901 80.5617C111.996 80.0418 115.485 83.5149 114.985 87.612L111.834 113.411Z" fill="#FF3D00"/>
<path d="M91.5581 90.5706L113.207 88.0546" stroke="#FF4D00" stroke-width="1.58322" stroke-linecap="round" stroke-dasharray="11.87 11.87"/>
<path d="M93.979 97.0164L112.741 94.7133" stroke="#FF4D00" stroke-width="1.58322" stroke-linecap="round" stroke-dasharray="11.87 11.87"/>
<path d="M97.4844 106.227L111.573 104.735" stroke="#FF4D00" stroke-width="1.58322" stroke-linecap="round" stroke-dasharray="11.87 11.87"/>
<path d="M100.145 110.294L109.997 109.108" stroke="#FF4D00" stroke-width="1.58322" stroke-linecap="round" stroke-dasharray="11.87 11.87"/>
<path d="M101.932 115.37L109.464 114.825" stroke="#FF4D00" stroke-width="1.58322" stroke-linecap="round" stroke-dasharray="11.87 11.87"/>
<path d="M104.206 101.009L112.645 99.9257" stroke="#FF4D00" stroke-width="1.58322" stroke-linecap="round" stroke-dasharray="11.87 11.87"/>
<path d="M95.2954 102.127L101.381 101.213" stroke="#FF4D00" stroke-width="1.58322" stroke-linecap="round" stroke-dasharray="11.87 11.87"/>
</svg>
