<svg width="145" height="122" viewBox="0 0 145 122" fill="none" xmlns="http://www.w3.org/2000/svg">
<path d="M18.3364 26.4632C18.2013 27.1042 17.3383 27.2247 17.0329 26.6452L8.47825 10.4115C8.25226 9.98267 8.52034 9.45954 9.00043 9.39252L21.3375 7.67047C21.8175 7.60345 22.2186 8.03318 22.1187 8.50751L18.3364 26.4632Z" fill="#18BD3D"/>
<path d="M26.4404 53.333C25.7361 59.0992 17.7988 60.107 15.6758 54.6998L7.28137 33.3198C5.94831 29.9246 8.16729 26.182 11.7858 25.7225L22.9648 24.303C26.5833 23.8436 29.6672 26.9128 29.225 30.5335L26.4404 53.333Z" fill="#FF3D00"/>
<path d="M8.52197 33.1482L27.6534 30.9248" stroke="#FF4D00" stroke-width="1.39913" stroke-linecap="round" stroke-dasharray="10.49 10.49"/>
<path d="M10.6616 38.8444L27.2422 36.8091" stroke="#FF4D00" stroke-width="1.39913" stroke-linecap="round" stroke-dasharray="10.49 10.49"/>
<path d="M13.7593 46.9844L26.2097 45.6659" stroke="#FF4D00" stroke-width="1.39913" stroke-linecap="round" stroke-dasharray="10.49 10.49"/>
<path d="M16.1108 50.5781L24.8171 49.5304" stroke="#FF4D00" stroke-width="1.39913" stroke-linecap="round" stroke-dasharray="10.49 10.49"/>
<path d="M17.689 55.064L24.3453 54.5827" stroke="#FF4D00" stroke-width="1.39913" stroke-linecap="round" stroke-dasharray="10.49 10.49"/>
<path d="M19.6987 42.3728L27.157 41.4153" stroke="#FF4D00" stroke-width="1.39913" stroke-linecap="round" stroke-dasharray="10.49 10.49"/>
<path d="M11.8247 43.3605L17.2029 42.5534" stroke="#FF4D00" stroke-width="1.39913" stroke-linecap="round" stroke-dasharray="10.49 10.49"/>
<path d="M43.1557 26.4632C43.0207 27.1042 42.1576 27.2247 41.8523 26.6452L33.2976 10.4115C33.0716 9.98267 33.3397 9.45954 33.8198 9.39252L46.1568 7.67047C46.6369 7.60345 47.038 8.03318 46.938 8.50751L43.1557 26.4632Z" fill="#18BD3D"/>
<path d="M51.2597 53.3331C50.5555 59.0993 42.6181 60.1072 40.4951 54.7L32.1007 33.3199C30.7676 29.9247 32.9866 26.1821 36.6051 25.7226L47.7841 24.3032C51.4026 23.8437 54.4866 26.913 54.0443 30.5336L51.2597 53.3331Z" fill="#FF3D00"/>
<path d="M33.3418 33.1481L52.4733 30.9246" stroke="#FF4D00" stroke-width="1.39913" stroke-linecap="round" stroke-dasharray="10.49 10.49"/>
<path d="M35.481 38.8444L52.0615 36.8091" stroke="#FF4D00" stroke-width="1.39913" stroke-linecap="round" stroke-dasharray="10.49 10.49"/>
<path d="M38.5786 46.9844L51.0291 45.6659" stroke="#FF4D00" stroke-width="1.39913" stroke-linecap="round" stroke-dasharray="10.49 10.49"/>
<path d="M40.9302 50.5781L49.6365 49.5304" stroke="#FF4D00" stroke-width="1.39913" stroke-linecap="round" stroke-dasharray="10.49 10.49"/>
<path d="M42.5088 55.064L49.1651 54.5827" stroke="#FF4D00" stroke-width="1.39913" stroke-linecap="round" stroke-dasharray="10.49 10.49"/>
<path d="M44.5186 42.3728L51.9768 41.4153" stroke="#FF4D00" stroke-width="1.39913" stroke-linecap="round" stroke-dasharray="10.49 10.49"/>
<path d="M36.6445 43.3605L42.0227 42.5534" stroke="#FF4D00" stroke-width="1.39913" stroke-linecap="round" stroke-dasharray="10.49 10.49"/>
<path d="M71.8378 26.4632C71.7028 27.1042 70.8398 27.2247 70.5344 26.6452L61.9797 10.4115C61.7537 9.98267 62.0218 9.45954 62.5019 9.39252L74.8389 7.67047C75.319 7.60345 75.7201 8.03318 75.6202 8.50751L71.8378 26.4632Z" fill="#18BD3D"/>
<path d="M79.9418 53.3331C79.2376 59.0993 71.3002 60.1072 69.1772 54.7L60.7828 33.3199C59.4498 29.9247 61.6688 26.1821 65.2872 25.7226L76.4663 24.3032C80.0847 23.8437 83.1687 26.913 82.7265 30.5336L79.9418 53.3331Z" fill="#FF3D00"/>
<path d="M62.0239 33.1482L81.1554 30.9248" stroke="#FF4D00" stroke-width="1.39913" stroke-linecap="round" stroke-dasharray="10.49 10.49"/>
<path d="M64.1631 38.8444L80.7437 36.8091" stroke="#FF4D00" stroke-width="1.39913" stroke-linecap="round" stroke-dasharray="10.49 10.49"/>
<path d="M67.2607 46.9844L79.7112 45.6659" stroke="#FF4D00" stroke-width="1.39913" stroke-linecap="round" stroke-dasharray="10.49 10.49"/>
<path d="M69.6123 50.5781L78.3186 49.5304" stroke="#FF4D00" stroke-width="1.39913" stroke-linecap="round" stroke-dasharray="10.49 10.49"/>
<path d="M71.1909 55.064L77.8472 54.5827" stroke="#FF4D00" stroke-width="1.39913" stroke-linecap="round" stroke-dasharray="10.49 10.49"/>
<path d="M73.2007 42.3728L80.6589 41.4153" stroke="#FF4D00" stroke-width="1.39913" stroke-linecap="round" stroke-dasharray="10.49 10.49"/>
<path d="M65.3267 43.3605L70.7048 42.5534" stroke="#FF4D00" stroke-width="1.39913" stroke-linecap="round" stroke-dasharray="10.49 10.49"/>
<path d="M97.0224 26.4632C96.8874 27.1042 96.0243 27.2247 95.719 26.6452L87.1643 10.4115C86.9383 9.98267 87.2064 9.45954 87.6865 9.39252L100.023 7.67047C100.504 7.60345 100.905 8.03318 100.805 8.50751L97.0224 26.4632Z" fill="#18BD3D"/>
<path d="M105.126 53.3331C104.422 59.0993 96.4848 60.1072 94.3618 54.7L85.9674 33.3199C84.6343 29.9247 86.8533 26.1821 90.4718 25.7226L101.651 24.3032C105.269 23.8437 108.353 26.913 107.911 30.5336L105.126 53.3331Z" fill="#FF3D00"/>
<path d="M87.208 33.1482L106.339 30.9248" stroke="#FF4D00" stroke-width="1.39913" stroke-linecap="round" stroke-dasharray="10.49 10.49"/>
<path d="M89.3472 38.8445L105.928 36.8092" stroke="#FF4D00" stroke-width="1.39913" stroke-linecap="round" stroke-dasharray="10.49 10.49"/>
<path d="M92.4453 46.9844L104.896 45.6659" stroke="#FF4D00" stroke-width="1.39913" stroke-linecap="round" stroke-dasharray="10.49 10.49"/>
<path d="M94.7964 50.5781L103.503 49.5304" stroke="#FF4D00" stroke-width="1.39913" stroke-linecap="round" stroke-dasharray="10.49 10.49"/>
<path d="M96.3755 55.0641L103.032 54.5828" stroke="#FF4D00" stroke-width="1.39913" stroke-linecap="round" stroke-dasharray="10.49 10.49"/>
<path d="M98.3848 42.3729L105.843 41.4154" stroke="#FF4D00" stroke-width="1.39913" stroke-linecap="round" stroke-dasharray="10.49 10.49"/>
<path d="M90.5107 43.3605L95.8889 42.5534" stroke="#FF4D00" stroke-width="1.39913" stroke-linecap="round" stroke-dasharray="10.49 10.49"/>
<path d="M124.337 27.4632C124.202 28.1042 123.339 28.2247 123.033 27.6452L114.479 11.4115C114.253 10.9827 114.521 10.4595 115.001 10.3925L127.338 8.67047C127.818 8.60345 128.219 9.03318 128.119 9.50751L124.337 27.4632Z" fill="#18BD3D"/>
<path d="M132.441 54.3331C131.737 60.0993 123.799 61.1072 121.676 55.7L113.282 34.3199C111.949 30.9247 114.168 27.1821 117.786 26.7226L128.965 25.3032C132.584 24.8437 135.668 27.913 135.225 31.5336L132.441 54.3331Z" fill="#FF3D00"/>
<path d="M114.522 34.1482L133.654 31.9248" stroke="#FF4D00" stroke-width="1.39913" stroke-linecap="round" stroke-dasharray="10.49 10.49"/>
<path d="M116.662 39.8445L133.242 37.8092" stroke="#FF4D00" stroke-width="1.39913" stroke-linecap="round" stroke-dasharray="10.49 10.49"/>
<path d="M119.76 47.9844L132.21 46.6659" stroke="#FF4D00" stroke-width="1.39913" stroke-linecap="round" stroke-dasharray="10.49 10.49"/>
<path d="M122.111 51.5781L130.817 50.5304" stroke="#FF4D00" stroke-width="1.39913" stroke-linecap="round" stroke-dasharray="10.49 10.49"/>
<path d="M123.69 56.0641L130.346 55.5828" stroke="#FF4D00" stroke-width="1.39913" stroke-linecap="round" stroke-dasharray="10.49 10.49"/>
<path d="M125.699 43.3729L133.157 42.4154" stroke="#FF4D00" stroke-width="1.39913" stroke-linecap="round" stroke-dasharray="10.49 10.49"/>
<path d="M117.825 44.3605L123.203 43.5534" stroke="#FF4D00" stroke-width="1.39913" stroke-linecap="round" stroke-dasharray="10.49 10.49"/>
<path d="M35.1274 70.6494C34.9923 71.2904 34.1293 71.4108 33.8239 70.8313L25.2693 54.5977C25.0433 54.1688 25.3114 53.6457 25.7914 53.5787L38.1285 51.8566C38.6086 51.7896 39.0096 52.2193 38.9097 52.6937L35.1274 70.6494Z" fill="#18BD3D"/>
<path d="M43.2314 97.5191C42.5271 103.285 34.5898 104.293 32.4668 98.886L24.0724 77.506C22.7393 74.1107 24.9583 70.3681 28.5768 69.9087L39.7558 68.4892C43.3743 68.0297 46.4582 71.099 46.016 74.7196L43.2314 97.5191Z" fill="#FF3D00"/>
<path d="M25.3125 77.3342L44.444 75.1108" stroke="#FF4D00" stroke-width="1.39913" stroke-linecap="round" stroke-dasharray="10.49 10.49"/>
<path d="M27.4521 83.0305L44.0327 80.9952" stroke="#FF4D00" stroke-width="1.39913" stroke-linecap="round" stroke-dasharray="10.49 10.49"/>
<path d="M30.5503 91.1705L43.0008 89.8521" stroke="#FF4D00" stroke-width="1.39913" stroke-linecap="round" stroke-dasharray="10.49 10.49"/>
<path d="M32.9014 94.7643L41.6077 93.7165" stroke="#FF4D00" stroke-width="1.39913" stroke-linecap="round" stroke-dasharray="10.49 10.49"/>
<path d="M34.48 99.2501L41.1363 98.7688" stroke="#FF4D00" stroke-width="1.39913" stroke-linecap="round" stroke-dasharray="10.49 10.49"/>
<path d="M36.4893 86.559L43.9475 85.6015" stroke="#FF4D00" stroke-width="1.39913" stroke-linecap="round" stroke-dasharray="10.49 10.49"/>
<path d="M28.6152 87.5466L33.9934 86.7396" stroke="#FF4D00" stroke-width="1.39913" stroke-linecap="round" stroke-dasharray="10.49 10.49"/>
<path d="M59.9467 70.6494C59.8117 71.2904 58.9487 71.4108 58.6433 70.8313L50.0886 54.5977C49.8626 54.1688 50.1307 53.6457 50.6108 53.5787L62.9478 51.8566C63.4279 51.7896 63.829 52.2193 63.7291 52.6937L59.9467 70.6494Z" fill="#18BD3D"/>
<path d="M68.0507 97.5191C67.3465 103.285 59.4091 104.293 57.2861 98.886L48.8917 77.506C47.5587 74.1107 49.7776 70.3681 53.3961 69.9087L64.5752 68.4892C68.1936 68.0297 71.2776 71.099 70.8354 74.7196L68.0507 97.5191Z" fill="#FF3D00"/>
<path d="M50.1323 77.3342L69.2638 75.1108" stroke="#FF4D00" stroke-width="1.39913" stroke-linecap="round" stroke-dasharray="10.49 10.49"/>
<path d="M52.2715 83.0305L68.8521 80.9952" stroke="#FF4D00" stroke-width="1.39913" stroke-linecap="round" stroke-dasharray="10.49 10.49"/>
<path d="M55.3696 91.1705L67.8201 89.8521" stroke="#FF4D00" stroke-width="1.39913" stroke-linecap="round" stroke-dasharray="10.49 10.49"/>
<path d="M57.7207 94.7643L66.427 93.7165" stroke="#FF4D00" stroke-width="1.39913" stroke-linecap="round" stroke-dasharray="10.49 10.49"/>
<path d="M59.2998 99.2501L65.9561 98.7688" stroke="#FF4D00" stroke-width="1.39913" stroke-linecap="round" stroke-dasharray="10.49 10.49"/>
<path d="M61.3091 86.559L68.7673 85.6015" stroke="#FF4D00" stroke-width="1.39913" stroke-linecap="round" stroke-dasharray="10.49 10.49"/>
<path d="M53.4351 87.5466L58.8132 86.7396" stroke="#FF4D00" stroke-width="1.39913" stroke-linecap="round" stroke-dasharray="10.49 10.49"/>
<path d="M88.6288 70.6494C88.4938 71.2904 87.6308 71.4108 87.3254 70.8313L78.7707 54.5977C78.5447 54.1688 78.8128 53.6457 79.2929 53.5787L91.6299 51.8566C92.11 51.7896 92.5111 52.2193 92.4112 52.6937L88.6288 70.6494Z" fill="#18BD3D"/>
<path d="M96.7329 97.5191C96.0286 103.285 88.0913 104.293 85.9682 98.886L77.5738 77.506C76.2408 74.1107 78.4598 70.3681 82.0783 69.9087L93.2573 68.4892C96.8758 68.0297 99.9597 71.099 99.5175 74.7196L96.7329 97.5191Z" fill="#FF3D00"/>
<path d="M78.8145 77.3342L97.9459 75.1108" stroke="#FF4D00" stroke-width="1.39913" stroke-linecap="round" stroke-dasharray="10.49 10.49"/>
<path d="M80.9536 83.0305L97.5342 80.9952" stroke="#FF4D00" stroke-width="1.39913" stroke-linecap="round" stroke-dasharray="10.49 10.49"/>
<path d="M84.0518 91.1705L96.5022 89.8521" stroke="#FF4D00" stroke-width="1.39913" stroke-linecap="round" stroke-dasharray="10.49 10.49"/>
<path d="M86.4028 94.7643L95.1091 93.7165" stroke="#FF4D00" stroke-width="1.39913" stroke-linecap="round" stroke-dasharray="10.49 10.49"/>
<path d="M87.9819 99.2501L94.6382 98.7688" stroke="#FF4D00" stroke-width="1.39913" stroke-linecap="round" stroke-dasharray="10.49 10.49"/>
<path d="M89.9912 86.559L97.4495 85.6015" stroke="#FF4D00" stroke-width="1.39913" stroke-linecap="round" stroke-dasharray="10.49 10.49"/>
<path d="M82.1172 87.5466L87.4953 86.7396" stroke="#FF4D00" stroke-width="1.39913" stroke-linecap="round" stroke-dasharray="10.49 10.49"/>
<path d="M113.813 70.6494C113.678 71.2904 112.815 71.4108 112.509 70.8313L103.955 54.5977C103.729 54.1688 103.997 53.6457 104.477 53.5787L116.814 51.8566C117.294 51.7896 117.695 52.2193 117.595 52.6937L113.813 70.6494Z" fill="#18BD3D"/>
<path d="M121.917 97.5191C121.213 103.285 113.275 104.293 111.152 98.886L102.758 77.506C101.425 74.1107 103.644 70.3681 107.262 69.9087L118.441 68.4892C122.06 68.0297 125.144 71.099 124.702 74.7196L121.917 97.5191Z" fill="#FF3D00"/>
<path d="M103.999 77.3342L123.13 75.1108" stroke="#FF4D00" stroke-width="1.39913" stroke-linecap="round" stroke-dasharray="10.49 10.49"/>
<path d="M106.138 83.0305L122.719 80.9952" stroke="#FF4D00" stroke-width="1.39913" stroke-linecap="round" stroke-dasharray="10.49 10.49"/>
<path d="M109.236 91.1705L121.686 89.8521" stroke="#FF4D00" stroke-width="1.39913" stroke-linecap="round" stroke-dasharray="10.49 10.49"/>
<path d="M111.587 94.7643L120.294 93.7165" stroke="#FF4D00" stroke-width="1.39913" stroke-linecap="round" stroke-dasharray="10.49 10.49"/>
<path d="M113.166 99.2501L119.822 98.7688" stroke="#FF4D00" stroke-width="1.39913" stroke-linecap="round" stroke-dasharray="10.49 10.49"/>
<path d="M115.176 86.559L122.634 85.6015" stroke="#FF4D00" stroke-width="1.39913" stroke-linecap="round" stroke-dasharray="10.49 10.49"/>
<path d="M107.302 87.5466L112.68 86.7396" stroke="#FF4D00" stroke-width="1.39913" stroke-linecap="round" stroke-dasharray="10.49 10.49"/>
</svg>
