<svg width="82" height="79" viewBox="0 0 82 79" fill="none" xmlns="http://www.w3.org/2000/svg">
<path d="M71.0492 37.8036C72.5888 37.8036 73.551 39.4703 72.7812 40.8036L64.2807 55.527C63.5109 56.8603 61.5864 56.8603 60.8166 55.527L52.316 40.8036C51.5462 39.4703 52.5085 37.8036 54.0481 37.8036L71.0492 37.8036Z" fill="#D9D9D9"/>
<mask id="path-2-inside-1_32_5" fill="white">
<path d="M61.6525 47.0587C63.5086 47.7188 65.5731 46.7509 65.9885 44.8252C67.0098 40.0906 66.7716 35.1481 65.2666 30.5003C63.3935 24.716 59.6633 19.7119 54.6549 16.2649C49.6465 12.8178 43.6402 11.1207 37.5684 11.4369C31.4967 11.7532 25.6992 14.0651 21.076 18.0139C16.4528 21.9626 13.2626 27.3272 12.0007 33.2747C10.7387 39.2223 11.4756 45.4201 14.097 50.906C16.7183 56.3919 21.0775 60.8588 26.4977 63.6134C30.8528 65.8268 35.6973 66.8351 40.5334 66.5668C42.5004 66.4577 43.7792 64.57 43.4175 62.6335V62.6335C43.0558 60.6969 41.1868 59.4535 39.2169 59.4739C35.9393 59.508 32.6829 58.7543 29.7298 57.2535C25.7105 55.2108 22.4779 51.8983 20.534 47.8302C18.5901 43.7621 18.0436 39.166 18.9795 34.7555C19.9153 30.345 22.281 26.3668 25.7094 23.4386C29.1377 20.5104 33.4369 18.7959 37.9395 18.5614C42.4421 18.3269 46.8962 19.5854 50.6102 22.1416C54.3242 24.6978 57.0904 28.4087 58.4794 32.6981C59.4999 35.8495 59.735 39.1837 59.1888 42.4157C58.8605 44.3581 59.7963 46.3986 61.6525 47.0587V47.0587Z"/>
</mask>
<path d="M61.6525 47.0587C63.5086 47.7188 65.5731 46.7509 65.9885 44.8252C67.0098 40.0906 66.7716 35.1481 65.2666 30.5003C63.3935 24.716 59.6633 19.7119 54.6549 16.2649C49.6465 12.8178 43.6402 11.1207 37.5684 11.4369C31.4967 11.7532 25.6992 14.0651 21.076 18.0139C16.4528 21.9626 13.2626 27.3272 12.0007 33.2747C10.7387 39.2223 11.4756 45.4201 14.097 50.906C16.7183 56.3919 21.0775 60.8588 26.4977 63.6134C30.8528 65.8268 35.6973 66.8351 40.5334 66.5668C42.5004 66.4577 43.7792 64.57 43.4175 62.6335V62.6335C43.0558 60.6969 41.1868 59.4535 39.2169 59.4739C35.9393 59.508 32.6829 58.7543 29.7298 57.2535C25.7105 55.2108 22.4779 51.8983 20.534 47.8302C18.5901 43.7621 18.0436 39.166 18.9795 34.7555C19.9153 30.345 22.281 26.3668 25.7094 23.4386C29.1377 20.5104 33.4369 18.7959 37.9395 18.5614C42.4421 18.3269 46.8962 19.5854 50.6102 22.1416C54.3242 24.6978 57.0904 28.4087 58.4794 32.6981C59.4999 35.8495 59.735 39.1837 59.1888 42.4157C58.8605 44.3581 59.7963 46.3986 61.6525 47.0587V47.0587Z" stroke="#D9D9D9" stroke-width="10" mask="url(#path-2-inside-1_32_5)"/>
</svg>
